<svg xmlns="http://www.w3.org/2000/svg" xmlns:xlink="http://www.w3.org/1999/xlink" width="54" zoomAndPan="magnify" viewBox="0 0 40.5 41.25" height="55" preserveAspectRatio="xMidYMid meet" version="1.0"><defs><g/><clipPath id="00cb277db7"><path d="M 0.117188 13 L 39.890625 13 L 39.890625 17.570312 L 0.117188 17.570312 Z M 0.117188 13 " clip-rule="nonzero"/></clipPath><clipPath id="46865d202a"><path d="M 0.117188 14 L 1 14 L 1 16 L 0.117188 16 Z M 0.117188 14 " clip-rule="nonzero"/></clipPath><clipPath id="21667d8d39"><path d="M 37 16 L 39.890625 16 L 39.890625 17.570312 L 37 17.570312 Z M 37 16 " clip-rule="nonzero"/></clipPath><clipPath id="a2d7aee445"><path d="M 2 25.25 L 38 25.25 L 38 25.984375 L 2 25.984375 Z M 2 25.25 " clip-rule="nonzero"/></clipPath></defs><g clip-path="url(#00cb277db7)"><path fill="#fb1f1f" d="M 40.023438 17.367188 C 38.617188 16.109375 36.972656 14.828125 33.371094 14.445312 C 31.355469 14.230469 28.097656 14.664062 26.070312 14.617188 C 23.070312 14.546875 20.097656 14 17.101562 13.835938 C 12.988281 13.613281 8.871094 13.480469 4.753906 13.445312 C 2.332031 13.425781 3.144531 14.113281 0.417969 13.359375 C 0.230469 13.277344 0.226562 13.8125 0.375 13.914062 C 2.152344 14.570312 3.203125 13.953125 5.011719 13.957031 C 9.015625 13.960938 13.015625 14.179688 17.015625 14.367188 C 20.011719 14.511719 22.996094 14.941406 25.996094 14.953125 C 28.050781 14.960938 31.332031 14.457031 33.371094 14.691406 C 36.394531 15.042969 38.539062 16.261719 40.023438 17.367188 " fill-opacity="1" fill-rule="evenodd"/></g><path fill="#fb1f1f" d="M 29.707031 14.171875 C 27.019531 12.851562 24.777344 11.378906 21.125 11.164062 C 17.476562 10.949219 10.746094 12.035156 5.765625 13.175781 C 9.128906 13.121094 12.496094 13.273438 15.863281 13.5625 C 15.039062 13.234375 14.25 13.042969 13.585938 12.699219 C 14.726562 12.265625 18.773438 11.273438 21.214844 11.527344 C 24.144531 11.832031 27.007812 13.046875 29.707031 14.171875 " fill-opacity="1" fill-rule="evenodd"/><g clip-path="url(#46865d202a)"><path fill="#ffffff" d="M 0.152344 15.398438 C 0.246094 15.398438 0.34375 15.398438 0.4375 15.398438 C 0.359375 14.976562 0.398438 14.605469 0.710938 14.347656 C 0.164062 14.363281 0.109375 14.824219 0.152344 15.398438 " fill-opacity="1" fill-rule="evenodd"/></g><path fill="#fb1f1f" d="M 28.25 14.398438 C 27.699219 14.398438 27.148438 14.398438 26.597656 14.398438 C 26.597656 14.296875 26.617188 13.644531 26.867188 13.632812 C 27.4375 13.597656 28.226562 14.15625 28.25 14.398438 " fill-opacity="1" fill-rule="evenodd"/><g clip-path="url(#21667d8d39)"><path fill="#ffffff" d="M 39.523438 17.519531 C 39.148438 17.519531 39.113281 17.519531 38.738281 17.519531 C 38.460938 17.519531 37.785156 16.75 37.546875 16.375 C 38.230469 16.648438 38.992188 17.015625 39.523438 17.519531 " fill-opacity="1" fill-rule="evenodd"/></g><g fill="#ffffff" fill-opacity="1"><g transform="translate(10.122295, 22.897449)"><g><path d="M 7.171875 -6.6875 L 7.953125 0.015625 L 7.203125 0 L 6.578125 -5.265625 L 3.890625 -0.171875 L 3.859375 -0.171875 L 1.25 -5.171875 L 0.546875 0.015625 L 0.375 0.015625 L 1.28125 -6.6875 L 1.3125 -6.6875 L 4.203125 -1.125 L 7.140625 -6.6875 Z M 7.171875 -6.6875 "/></g></g></g><g fill="#ffffff" fill-opacity="1"><g transform="translate(18.489943, 22.897449)"><g><path d="M 5.46875 0.015625 L 4.34375 -2.640625 L 1.78125 -2.640625 L 0.609375 0.015625 L 0.359375 0.015625 L 3.34375 -6.6875 L 3.40625 -6.6875 L 6.265625 0.015625 Z M 1.859375 -2.796875 L 4.265625 -2.796875 L 3.078125 -5.5625 Z M 1.859375 -2.796875 "/></g></g></g><g fill="#ffffff" fill-opacity="1"><g transform="translate(25.133918, 22.897449)"><g><path d="M 3.84375 -6.390625 L 1.25 -6.390625 L 1.25 -3.515625 L 3.546875 -3.515625 L 3.546875 -3.328125 L 1.25 -3.328125 L 1.25 0.015625 L 0.5 0.015625 L 0.5 -6.5625 L 3.84375 -6.5625 Z M 3.84375 -6.390625 "/></g></g></g><g clip-path="url(#a2d7aee445)"><path fill="#ffffff" d="M 19.726562 25.570312 L 2 25.410156 L 19.726562 25.25 L 37.449219 25.410156 Z M 19.726562 25.570312 " fill-opacity="1" fill-rule="nonzero"/></g><g fill="#fb1f1f" fill-opacity="1"><g transform="translate(10.352742, 29.215572)"><g><path d="M 0.90625 -1.78125 C 1.019531 -1.78125 1.117188 -1.753906 1.203125 -1.703125 C 1.296875 -1.660156 1.363281 -1.597656 1.40625 -1.515625 C 1.457031 -1.441406 1.484375 -1.347656 1.484375 -1.234375 C 1.484375 -1.117188 1.457031 -1.019531 1.40625 -0.9375 C 1.363281 -0.863281 1.296875 -0.800781 1.203125 -0.75 C 1.117188 -0.707031 1.019531 -0.6875 0.90625 -0.6875 L 0.484375 -0.6875 L 0.484375 0 L 0.265625 0 L 0.265625 -1.78125 Z M 0.890625 -0.875 C 1.140625 -0.875 1.265625 -0.992188 1.265625 -1.234375 C 1.265625 -1.472656 1.140625 -1.59375 0.890625 -1.59375 L 0.484375 -1.59375 L 0.484375 -0.875 Z M 0.890625 -0.875 "/></g></g></g><g fill="#fb1f1f" fill-opacity="1"><g transform="translate(11.965973, 29.215572)"><g><path d="M 0.484375 -0.828125 L 0.484375 -0.171875 L 1.375 -0.171875 L 1.375 0 L 0.265625 0 L 0.265625 -1.78125 L 1.359375 -1.78125 L 1.359375 -1.59375 L 0.484375 -1.59375 L 0.484375 -1.015625 L 1.25 -1.015625 L 1.25 -0.828125 Z M 0.484375 -0.828125 "/></g></g></g><g fill="#fb1f1f" fill-opacity="1"><g transform="translate(13.460603, 29.215572)"><g><path d="M 0.265625 0 L 0.265625 -1.78125 L 0.90625 -1.78125 C 1.03125 -1.78125 1.128906 -1.757812 1.203125 -1.71875 C 1.285156 -1.675781 1.347656 -1.617188 1.390625 -1.546875 C 1.429688 -1.472656 1.453125 -1.390625 1.453125 -1.296875 C 1.453125 -1.179688 1.425781 -1.085938 1.375 -1.015625 C 1.320312 -0.953125 1.234375 -0.898438 1.109375 -0.859375 L 1.109375 -0.828125 C 1.171875 -0.804688 1.21875 -0.769531 1.25 -0.71875 C 1.289062 -0.675781 1.328125 -0.609375 1.359375 -0.515625 L 1.515625 0 L 1.3125 0 L 1.125 -0.546875 C 1.101562 -0.609375 1.078125 -0.65625 1.046875 -0.6875 C 1.023438 -0.726562 0.992188 -0.753906 0.953125 -0.765625 C 0.910156 -0.785156 0.859375 -0.796875 0.796875 -0.796875 L 0.484375 -0.796875 L 0.484375 0 Z M 0.90625 -0.96875 C 1.019531 -0.96875 1.101562 -0.992188 1.15625 -1.046875 C 1.207031 -1.097656 1.234375 -1.175781 1.234375 -1.28125 C 1.234375 -1.382812 1.207031 -1.460938 1.15625 -1.515625 C 1.101562 -1.566406 1.019531 -1.59375 0.90625 -1.59375 L 0.484375 -1.59375 L 0.484375 -0.96875 Z M 0.90625 -0.96875 "/></g></g></g><g fill="#fb1f1f" fill-opacity="1"><g transform="translate(15.099248, 29.215572)"><g><path d="M 1.3125 -1.78125 L 1.3125 -1.59375 L 0.484375 -1.59375 L 0.484375 -0.953125 L 1.21875 -0.953125 L 1.21875 -0.78125 L 0.484375 -0.78125 L 0.484375 0 L 0.265625 0 L 0.265625 -1.78125 Z M 1.3125 -1.78125 "/></g></g></g><g fill="#fb1f1f" fill-opacity="1"><g transform="translate(16.501899, 29.215572)"><g><path d="M 0.96875 0.03125 C 0.820312 0.03125 0.6875 0 0.5625 -0.0625 C 0.445312 -0.132812 0.351562 -0.238281 0.28125 -0.375 C 0.207031 -0.507812 0.171875 -0.679688 0.171875 -0.890625 C 0.171875 -1.085938 0.207031 -1.253906 0.28125 -1.390625 C 0.351562 -1.523438 0.445312 -1.625 0.5625 -1.6875 C 0.6875 -1.757812 0.820312 -1.796875 0.96875 -1.796875 C 1.125 -1.796875 1.257812 -1.757812 1.375 -1.6875 C 1.5 -1.625 1.59375 -1.523438 1.65625 -1.390625 C 1.726562 -1.253906 1.765625 -1.085938 1.765625 -0.890625 C 1.765625 -0.679688 1.726562 -0.507812 1.65625 -0.375 C 1.59375 -0.238281 1.5 -0.132812 1.375 -0.0625 C 1.257812 0 1.125 0.03125 0.96875 0.03125 Z M 0.96875 -0.171875 C 1.15625 -0.171875 1.296875 -0.226562 1.390625 -0.34375 C 1.492188 -0.457031 1.546875 -0.640625 1.546875 -0.890625 C 1.546875 -1.140625 1.492188 -1.320312 1.390625 -1.4375 C 1.296875 -1.550781 1.15625 -1.609375 0.96875 -1.609375 C 0.59375 -1.609375 0.40625 -1.367188 0.40625 -0.890625 C 0.40625 -0.410156 0.59375 -0.171875 0.96875 -0.171875 Z M 0.96875 -0.171875 "/></g></g></g><g fill="#fb1f1f" fill-opacity="1"><g transform="translate(18.443101, 29.215572)"><g><path d="M 0.265625 0 L 0.265625 -1.78125 L 0.90625 -1.78125 C 1.03125 -1.78125 1.128906 -1.757812 1.203125 -1.71875 C 1.285156 -1.675781 1.347656 -1.617188 1.390625 -1.546875 C 1.429688 -1.472656 1.453125 -1.390625 1.453125 -1.296875 C 1.453125 -1.179688 1.425781 -1.085938 1.375 -1.015625 C 1.320312 -0.953125 1.234375 -0.898438 1.109375 -0.859375 L 1.109375 -0.828125 C 1.171875 -0.804688 1.21875 -0.769531 1.25 -0.71875 C 1.289062 -0.675781 1.328125 -0.609375 1.359375 -0.515625 L 1.515625 0 L 1.3125 0 L 1.125 -0.546875 C 1.101562 -0.609375 1.078125 -0.65625 1.046875 -0.6875 C 1.023438 -0.726562 0.992188 -0.753906 0.953125 -0.765625 C 0.910156 -0.785156 0.859375 -0.796875 0.796875 -0.796875 L 0.484375 -0.796875 L 0.484375 0 Z M 0.90625 -0.96875 C 1.019531 -0.96875 1.101562 -0.992188 1.15625 -1.046875 C 1.207031 -1.097656 1.234375 -1.175781 1.234375 -1.28125 C 1.234375 -1.382812 1.207031 -1.460938 1.15625 -1.515625 C 1.101562 -1.566406 1.019531 -1.59375 0.90625 -1.59375 L 0.484375 -1.59375 L 0.484375 -0.96875 Z M 0.90625 -0.96875 "/></g></g></g><g fill="#fb1f1f" fill-opacity="1"><g transform="translate(20.081746, 29.215572)"><g><path d="M 0.46875 0 L 0.265625 0 L 0.265625 -1.78125 L 0.578125 -1.78125 L 1.109375 -0.265625 L 1.140625 -0.265625 L 1.671875 -1.78125 L 1.96875 -1.78125 L 1.96875 0 L 1.78125 0 L 1.78125 -1.453125 L 1.75 -1.453125 L 1.21875 0 L 1.015625 0 L 0.484375 -1.453125 L 0.46875 -1.453125 Z M 0.46875 0 "/></g></g></g><g fill="#fb1f1f" fill-opacity="1"><g transform="translate(22.321874, 29.215572)"><g><path d="M 1.59375 0 L 1.375 0 L 1.203125 -0.484375 L 0.453125 -0.484375 L 0.28125 0 L 0.078125 0 L 0.6875 -1.78125 L 0.984375 -1.78125 Z M 0.8125 -1.5625 L 0.515625 -0.65625 L 1.15625 -0.65625 L 0.84375 -1.5625 Z M 0.8125 -1.5625 "/></g></g></g><g fill="#fb1f1f" fill-opacity="1"><g transform="translate(23.984723, 29.215572)"><g><path d="M 0.46875 0 L 0.265625 0 L 0.265625 -1.78125 L 0.53125 -1.78125 L 1.390625 -0.421875 L 1.421875 -0.421875 L 1.421875 -1.78125 L 1.625 -1.78125 L 1.625 0 L 1.40625 0 L 0.5 -1.453125 L 0.46875 -1.4375 Z M 0.46875 0 "/></g></g></g><g fill="#fb1f1f" fill-opacity="1"><g transform="translate(25.871465, 29.215572)"><g><path d="M 0.984375 0.03125 C 0.828125 0.03125 0.6875 -0.00390625 0.5625 -0.078125 C 0.445312 -0.148438 0.351562 -0.253906 0.28125 -0.390625 C 0.207031 -0.523438 0.171875 -0.691406 0.171875 -0.890625 C 0.171875 -1.078125 0.207031 -1.238281 0.28125 -1.375 C 0.351562 -1.507812 0.445312 -1.613281 0.5625 -1.6875 C 0.6875 -1.757812 0.828125 -1.796875 0.984375 -1.796875 C 1.148438 -1.796875 1.285156 -1.765625 1.390625 -1.703125 C 1.503906 -1.640625 1.582031 -1.546875 1.625 -1.421875 L 1.5 -1.328125 L 1.46875 -1.328125 C 1.414062 -1.429688 1.347656 -1.503906 1.265625 -1.546875 C 1.191406 -1.585938 1.097656 -1.609375 0.984375 -1.609375 C 0.867188 -1.609375 0.765625 -1.582031 0.671875 -1.53125 C 0.585938 -1.488281 0.519531 -1.410156 0.46875 -1.296875 C 0.425781 -1.191406 0.40625 -1.054688 0.40625 -0.890625 C 0.40625 -0.722656 0.425781 -0.582031 0.46875 -0.46875 C 0.519531 -0.363281 0.585938 -0.285156 0.671875 -0.234375 C 0.765625 -0.179688 0.867188 -0.15625 0.984375 -0.15625 C 1.109375 -0.15625 1.210938 -0.1875 1.296875 -0.25 C 1.378906 -0.3125 1.441406 -0.40625 1.484375 -0.53125 L 1.515625 -0.53125 L 1.640625 -0.46875 C 1.597656 -0.300781 1.519531 -0.175781 1.40625 -0.09375 C 1.300781 -0.0078125 1.160156 0.03125 0.984375 0.03125 Z M 0.984375 0.03125 "/></g></g></g><g fill="#fb1f1f" fill-opacity="1"><g transform="translate(27.606928, 29.215572)"><g><path d="M 0.484375 -0.828125 L 0.484375 -0.171875 L 1.375 -0.171875 L 1.375 0 L 0.265625 0 L 0.265625 -1.78125 L 1.359375 -1.78125 L 1.359375 -1.59375 L 0.484375 -1.59375 L 0.484375 -1.015625 L 1.25 -1.015625 L 1.25 -0.828125 Z M 0.484375 -0.828125 "/></g></g></g></svg>