<svg xmlns="http://www.w3.org/2000/svg" xmlns:xlink="http://www.w3.org/1999/xlink" width="136" zoomAndPan="magnify" viewBox="0 0 102 41.25" height="55" preserveAspectRatio="xMidYMid meet" version="1.0"><defs><g/><clipPath id="3e23d3d0f7"><path d="M 9 5 L 95 5 L 95 13.996094 L 9 13.996094 Z M 9 5 " clip-rule="nonzero"/></clipPath><clipPath id="e256cba151"><path d="M 8.816406 7 L 11 7 L 11 10 L 8.816406 10 Z M 8.816406 7 " clip-rule="nonzero"/></clipPath><clipPath id="0b2d292234"><path d="M 89 11 L 94 11 L 94 13.996094 L 89 13.996094 Z M 89 11 " clip-rule="nonzero"/></clipPath><clipPath id="d501faff4e"><path d="M 11 30.765625 L 91 30.765625 L 91 31.503906 L 11 31.503906 Z M 11 30.765625 " clip-rule="nonzero"/></clipPath></defs><g clip-path="url(#3e23d3d0f7)"><path fill="#fb1f1f" d="M 94.644531 13.820312 C 91.625 11.113281 88.082031 8.355469 80.34375 7.53125 C 76.007812 7.070312 69 8.003906 64.640625 7.902344 C 58.1875 7.753906 51.796875 6.578125 45.351562 6.226562 C 36.507812 5.742188 27.652344 5.460938 18.792969 5.386719 C 13.59375 5.34375 15.335938 6.816406 9.476562 5.199219 C 9.066406 5.023438 9.0625 6.171875 9.382812 6.390625 C 13.199219 7.800781 15.460938 6.476562 19.351562 6.480469 C 27.960938 6.492188 36.566406 6.960938 45.164062 7.367188 C 51.609375 7.671875 58.027344 8.597656 64.480469 8.625 C 68.894531 8.644531 75.957031 7.558594 80.34375 8.066406 C 86.839844 8.820312 91.449219 11.4375 94.644531 13.820312 " fill-opacity="1" fill-rule="evenodd"/></g><path fill="#fb1f1f" d="M 72.460938 6.945312 C 66.679688 4.105469 61.855469 0.941406 54.007812 0.480469 C 46.160156 0.015625 31.679688 2.351562 20.972656 4.800781 C 28.210938 4.683594 35.449219 5.007812 42.6875 5.640625 C 40.917969 4.929688 39.222656 4.519531 37.792969 3.777344 C 40.246094 2.84375 48.949219 0.714844 54.195312 1.257812 C 60.496094 1.914062 66.660156 4.527344 72.460938 6.945312 " fill-opacity="1" fill-rule="evenodd"/><g clip-path="url(#e256cba151)"><path fill="#ffffff" d="M 8.902344 9.578125 C 9.105469 9.578125 9.3125 9.578125 9.519531 9.578125 C 9.351562 8.679688 9.429688 7.878906 10.101562 7.320312 C 8.929688 7.355469 8.8125 8.347656 8.902344 9.578125 " fill-opacity="1" fill-rule="evenodd"/></g><path fill="#fb1f1f" d="M 69.328125 7.4375 C 68.140625 7.4375 66.957031 7.4375 65.773438 7.4375 C 65.773438 7.210938 65.8125 5.816406 66.355469 5.78125 C 67.582031 5.710938 69.277344 6.910156 69.328125 7.4375 " fill-opacity="1" fill-rule="evenodd"/><g clip-path="url(#0b2d292234)"><path fill="#ffffff" d="M 93.566406 14.148438 C 92.761719 14.148438 92.691406 14.148438 91.886719 14.148438 C 91.289062 14.148438 89.835938 12.492188 89.316406 11.6875 C 90.785156 12.269531 92.429688 13.066406 93.566406 14.148438 " fill-opacity="1" fill-rule="evenodd"/></g><g fill="#ffffff" fill-opacity="1"><g transform="translate(30.341694, 25.709577)"><g><path d="M 15.40625 -14.375 L 17.09375 0.015625 L 15.484375 0 L 14.15625 -11.296875 L 8.359375 -0.359375 L 8.296875 -0.359375 L 2.703125 -11.125 L 1.1875 0.015625 L 0.8125 0.015625 L 2.765625 -14.375 L 2.828125 -14.375 L 9.03125 -2.40625 L 15.34375 -14.375 Z M 15.40625 -14.375 "/></g></g></g><g fill="#ffffff" fill-opacity="1"><g transform="translate(48.335694, 25.709577)"><g><path d="M 11.75 0.015625 L 9.328125 -5.65625 L 3.8125 -5.65625 L 1.296875 0.015625 L 0.78125 0.015625 L 7.1875 -14.375 L 7.328125 -14.375 L 13.484375 0.015625 Z M 4 -6.015625 L 9.171875 -6.015625 L 6.625 -11.953125 Z M 4 -6.015625 "/></g></g></g><g fill="#ffffff" fill-opacity="1"><g transform="translate(62.623063, 25.709577)"><g><path d="M 8.25 -13.734375 L 2.703125 -13.734375 L 2.703125 -7.546875 L 7.640625 -7.546875 L 7.640625 -7.171875 L 2.703125 -7.171875 L 2.703125 0.015625 L 1.078125 0.015625 L 1.078125 -14.109375 L 8.25 -14.109375 Z M 8.25 -13.734375 "/></g></g></g><g clip-path="url(#d501faff4e)"><path fill="#ffffff" d="M 51 31.480469 L 11.75 31.121094 L 51 30.765625 L 90.246094 31.121094 Z M 51 31.480469 " fill-opacity="1" fill-rule="nonzero"/></g><g fill="#fb1f1f" fill-opacity="1"><g transform="translate(30.837254, 39.296231)"><g><path d="M 1.9375 -3.796875 C 2.195312 -3.796875 2.421875 -3.75 2.609375 -3.65625 C 2.796875 -3.5625 2.9375 -3.425781 3.03125 -3.25 C 3.132812 -3.082031 3.1875 -2.878906 3.1875 -2.640625 C 3.1875 -2.410156 3.132812 -2.207031 3.03125 -2.03125 C 2.9375 -1.851562 2.796875 -1.71875 2.609375 -1.625 C 2.421875 -1.53125 2.195312 -1.484375 1.9375 -1.484375 L 1.015625 -1.484375 L 1.015625 0 L 0.578125 0 L 0.578125 -3.796875 Z M 1.921875 -1.875 C 2.453125 -1.875 2.71875 -2.128906 2.71875 -2.640625 C 2.71875 -3.160156 2.453125 -3.421875 1.921875 -3.421875 L 1.015625 -3.421875 L 1.015625 -1.875 Z M 1.921875 -1.875 "/></g></g></g><g fill="#fb1f1f" fill-opacity="1"><g transform="translate(34.306387, 39.296231)"><g><path d="M 1.015625 -1.796875 L 1.015625 -0.375 L 2.953125 -0.375 L 2.953125 0 L 0.578125 0 L 0.578125 -3.796875 L 2.921875 -3.796875 L 2.921875 -3.4375 L 1.015625 -3.4375 L 1.015625 -2.15625 L 2.6875 -2.15625 L 2.6875 -1.796875 Z M 1.015625 -1.796875 "/></g></g></g><g fill="#fb1f1f" fill-opacity="1"><g transform="translate(37.520474, 39.296231)"><g><path d="M 0.578125 0 L 0.578125 -3.796875 L 1.953125 -3.796875 C 2.210938 -3.796875 2.425781 -3.753906 2.59375 -3.671875 C 2.769531 -3.585938 2.898438 -3.46875 2.984375 -3.3125 C 3.078125 -3.164062 3.125 -2.988281 3.125 -2.78125 C 3.125 -2.539062 3.0625 -2.34375 2.9375 -2.1875 C 2.820312 -2.039062 2.640625 -1.925781 2.390625 -1.84375 L 2.390625 -1.796875 C 2.515625 -1.742188 2.613281 -1.664062 2.6875 -1.5625 C 2.769531 -1.457031 2.84375 -1.300781 2.90625 -1.09375 L 3.265625 0 L 2.796875 0 L 2.421875 -1.15625 C 2.378906 -1.300781 2.328125 -1.410156 2.265625 -1.484375 C 2.203125 -1.566406 2.125 -1.625 2.03125 -1.65625 C 1.945312 -1.6875 1.835938 -1.703125 1.703125 -1.703125 L 1.015625 -1.703125 L 1.015625 0 Z M 1.953125 -2.09375 C 2.179688 -2.09375 2.351562 -2.144531 2.46875 -2.25 C 2.59375 -2.363281 2.65625 -2.53125 2.65625 -2.75 C 2.65625 -2.976562 2.59375 -3.144531 2.46875 -3.25 C 2.351562 -3.363281 2.179688 -3.421875 1.953125 -3.421875 L 1.015625 -3.421875 L 1.015625 -2.09375 Z M 1.953125 -2.09375 "/></g></g></g><g fill="#fb1f1f" fill-opacity="1"><g transform="translate(41.044257, 39.296231)"><g><path d="M 2.8125 -3.796875 L 2.8125 -3.4375 L 1.015625 -3.4375 L 1.015625 -2.046875 L 2.625 -2.046875 L 2.625 -1.671875 L 1.015625 -1.671875 L 1.015625 0 L 0.578125 0 L 0.578125 -3.796875 Z M 2.8125 -3.796875 "/></g></g></g><g fill="#fb1f1f" fill-opacity="1"><g transform="translate(44.060555, 39.296231)"><g><path d="M 2.09375 0.046875 C 1.757812 0.046875 1.460938 -0.0195312 1.203125 -0.15625 C 0.953125 -0.300781 0.75 -0.519531 0.59375 -0.8125 C 0.445312 -1.101562 0.375 -1.46875 0.375 -1.90625 C 0.375 -2.34375 0.445312 -2.707031 0.59375 -3 C 0.75 -3.289062 0.953125 -3.503906 1.203125 -3.640625 C 1.460938 -3.785156 1.757812 -3.859375 2.09375 -3.859375 C 2.414062 -3.859375 2.703125 -3.785156 2.953125 -3.640625 C 3.210938 -3.503906 3.414062 -3.289062 3.5625 -3 C 3.71875 -2.707031 3.796875 -2.34375 3.796875 -1.90625 C 3.796875 -1.46875 3.71875 -1.101562 3.5625 -0.8125 C 3.414062 -0.519531 3.210938 -0.300781 2.953125 -0.15625 C 2.703125 -0.0195312 2.414062 0.046875 2.09375 0.046875 Z M 2.09375 -0.359375 C 2.476562 -0.359375 2.773438 -0.476562 2.984375 -0.71875 C 3.203125 -0.96875 3.3125 -1.363281 3.3125 -1.90625 C 3.3125 -2.4375 3.203125 -2.820312 2.984375 -3.0625 C 2.773438 -3.3125 2.476562 -3.4375 2.09375 -3.4375 C 1.269531 -3.4375 0.859375 -2.925781 0.859375 -1.90625 C 0.859375 -0.875 1.269531 -0.359375 2.09375 -0.359375 Z M 2.09375 -0.359375 "/></g></g></g><g fill="#fb1f1f" fill-opacity="1"><g transform="translate(48.234962, 39.296231)"><g><path d="M 0.578125 0 L 0.578125 -3.796875 L 1.953125 -3.796875 C 2.210938 -3.796875 2.425781 -3.753906 2.59375 -3.671875 C 2.769531 -3.585938 2.898438 -3.46875 2.984375 -3.3125 C 3.078125 -3.164062 3.125 -2.988281 3.125 -2.78125 C 3.125 -2.539062 3.0625 -2.34375 2.9375 -2.1875 C 2.820312 -2.039062 2.640625 -1.925781 2.390625 -1.84375 L 2.390625 -1.796875 C 2.515625 -1.742188 2.613281 -1.664062 2.6875 -1.5625 C 2.769531 -1.457031 2.84375 -1.300781 2.90625 -1.09375 L 3.265625 0 L 2.796875 0 L 2.421875 -1.15625 C 2.378906 -1.300781 2.328125 -1.410156 2.265625 -1.484375 C 2.203125 -1.566406 2.125 -1.625 2.03125 -1.65625 C 1.945312 -1.6875 1.835938 -1.703125 1.703125 -1.703125 L 1.015625 -1.703125 L 1.015625 0 Z M 1.953125 -2.09375 C 2.179688 -2.09375 2.351562 -2.144531 2.46875 -2.25 C 2.59375 -2.363281 2.65625 -2.53125 2.65625 -2.75 C 2.65625 -2.976562 2.59375 -3.144531 2.46875 -3.25 C 2.351562 -3.363281 2.179688 -3.421875 1.953125 -3.421875 L 1.015625 -3.421875 L 1.015625 -2.09375 Z M 1.953125 -2.09375 "/></g></g></g><g fill="#fb1f1f" fill-opacity="1"><g transform="translate(51.758745, 39.296231)"><g><path d="M 0.984375 0 L 0.578125 0 L 0.578125 -3.796875 L 1.234375 -3.796875 L 2.390625 -0.578125 L 2.453125 -0.578125 L 3.59375 -3.796875 L 4.234375 -3.796875 L 4.234375 0 L 3.8125 0 L 3.8125 -3.109375 L 3.75 -3.109375 L 2.625 0 L 2.1875 0 L 1.046875 -3.109375 L 0.984375 -3.109375 Z M 0.984375 0 "/></g></g></g><g fill="#fb1f1f" fill-opacity="1"><g transform="translate(56.575972, 39.296231)"><g><path d="M 3.421875 0 L 2.9375 0 L 2.59375 -1.046875 L 0.96875 -1.046875 L 0.625 0 L 0.15625 0 L 1.484375 -3.796875 L 2.09375 -3.796875 Z M 1.75 -3.34375 L 1.09375 -1.421875 L 2.46875 -1.421875 L 1.8125 -3.34375 Z M 1.75 -3.34375 "/></g></g></g><g fill="#fb1f1f" fill-opacity="1"><g transform="translate(60.151805, 39.296231)"><g><path d="M 1.015625 0 L 0.578125 0 L 0.578125 -3.796875 L 1.125 -3.796875 L 2.984375 -0.890625 L 3.046875 -0.90625 L 3.046875 -3.796875 L 3.484375 -3.796875 L 3.484375 0 L 3.015625 0 L 1.078125 -3.109375 L 1.015625 -3.09375 Z M 1.015625 0 "/></g></g></g><g fill="#fb1f1f" fill-opacity="1"><g transform="translate(64.209102, 39.296231)"><g><path d="M 2.109375 0.046875 C 1.773438 0.046875 1.476562 -0.0234375 1.21875 -0.171875 C 0.957031 -0.328125 0.75 -0.550781 0.59375 -0.84375 C 0.445312 -1.132812 0.375 -1.488281 0.375 -1.90625 C 0.375 -2.3125 0.445312 -2.660156 0.59375 -2.953125 C 0.75 -3.253906 0.957031 -3.476562 1.21875 -3.625 C 1.476562 -3.78125 1.773438 -3.859375 2.109375 -3.859375 C 2.460938 -3.859375 2.753906 -3.789062 2.984375 -3.65625 C 3.222656 -3.519531 3.394531 -3.316406 3.5 -3.046875 L 3.21875 -2.859375 L 3.140625 -2.859375 C 3.035156 -3.078125 2.898438 -3.226562 2.734375 -3.3125 C 2.578125 -3.40625 2.367188 -3.453125 2.109375 -3.453125 C 1.867188 -3.453125 1.65625 -3.398438 1.46875 -3.296875 C 1.28125 -3.191406 1.128906 -3.019531 1.015625 -2.78125 C 0.910156 -2.550781 0.859375 -2.257812 0.859375 -1.90625 C 0.859375 -1.539062 0.910156 -1.242188 1.015625 -1.015625 C 1.128906 -0.785156 1.28125 -0.613281 1.46875 -0.5 C 1.65625 -0.394531 1.867188 -0.34375 2.109375 -0.34375 C 2.378906 -0.34375 2.601562 -0.40625 2.78125 -0.53125 C 2.957031 -0.65625 3.085938 -0.859375 3.171875 -1.140625 L 3.234375 -1.140625 L 3.53125 -0.984375 C 3.4375 -0.648438 3.269531 -0.394531 3.03125 -0.21875 C 2.789062 -0.0390625 2.484375 0.046875 2.109375 0.046875 Z M 2.109375 0.046875 "/></g></g></g><g fill="#fb1f1f" fill-opacity="1"><g transform="translate(67.941085, 39.296231)"><g><path d="M 1.015625 -1.796875 L 1.015625 -0.375 L 2.953125 -0.375 L 2.953125 0 L 0.578125 0 L 0.578125 -3.796875 L 2.921875 -3.796875 L 2.921875 -3.4375 L 1.015625 -3.4375 L 1.015625 -2.15625 L 2.6875 -2.15625 L 2.6875 -1.796875 Z M 1.015625 -1.796875 "/></g></g></g></svg>